<?xml version="1.0" encoding="utf-8"?>
<!-- Generator: Adobe Illustrator 16.0.0, SVG Export Plug-In . SVG Version: 6.00 Build 0)  -->
<!DOCTYPE svg PUBLIC "-//W3C//DTD SVG 1.1//EN" "http://www.w3.org/Graphics/SVG/1.1/DTD/svg11.dtd">
<svg version="1.1" id="Layer_1" xmlns="http://www.w3.org/2000/svg" xmlns:xlink="http://www.w3.org/1999/xlink" x="0px" y="0px"
	 width="148px" height="26px" viewBox="0 0 148 26" enable-background="new 0 0 148 26" xml:space="preserve">
<title>Plusadmin_logo Copy</title>
<desc>Created with Sketch.</desc>
<g>
	<path fill="#0033CC" stroke="#FFFFFF" d="M8.662,1c0.828,0,1.914,0.205,3.256,0.614c0.161,0.049,0.288,0.074,0.384,0.074
		c0.081,0,0.321-0.072,0.723-0.216c0.13-0.049,0.267-0.074,0.412-0.074c0.539,0,1.106,0.426,1.707,1.277
		c0.599,0.853,0.898,1.666,0.898,2.437c0,0.452-0.135,0.83-0.405,1.14c-0.27,0.309-0.598,0.462-0.981,0.462
		c-0.322,0-0.583-0.063-0.783-0.192c-0.201-0.129-0.644-0.509-1.326-1.144c-0.966-0.9-1.914-1.35-2.845-1.35
		c-0.452,0-0.81,0.108-1.079,0.325C8.353,4.569,8.217,4.856,8.217,5.208c0,0.699,0.616,1.227,1.846,1.58
		c1.665,0.491,2.729,0.849,3.195,1.073c2.05,0.997,3.074,2.465,3.074,4.401c0,1.709-0.698,3.11-2.098,4.196
		c-1.431,1.108-3.299,1.658-5.605,1.658c-1.029,0-2.114-0.123-3.255-0.37c-1.141-0.238-1.965-0.528-2.472-0.861
		c-0.386-0.255-0.735-0.816-1.042-1.68c-0.311-0.868-0.464-1.707-0.464-2.527c0-0.394,0.081-0.69,0.241-0.89
		c0.2-0.258,0.453-0.388,0.759-0.388c0.305,0,0.598,0.158,0.879,0.471c0.169,0.176,0.566,0.744,1.194,1.701
		c0.298,0.445,0.768,0.822,1.418,1.122c0.646,0.294,1.317,0.446,2.006,0.446c0.596,0,1.077-0.108,1.447-0.334
		c0.37-0.222,0.554-0.499,0.554-0.849c0-0.323-0.144-0.6-0.433-0.833c-0.289-0.232-0.759-0.451-1.411-0.652
		c-1.151-0.361-2.026-0.692-2.628-0.995c-0.602-0.303-1.164-0.681-1.687-1.139C2.466,9.212,1.831,7.937,1.831,6.503
		c0-0.706,0.165-1.395,0.494-2.067c0.33-0.671,0.796-1.251,1.398-1.741C5.069,1.568,6.717,1,8.662,1z"/>
	<path fill="#0033CC" stroke="#FFFFFF" d="M24.155,5.787c1.429,0,2.691,0.358,3.786,1.072c1.036,0.684,1.555,1.531,1.555,2.545
		c0,0.7-0.24,1.267-0.722,1.701c-0.451,0.41-0.993,0.614-1.627,0.614c-0.668,0-1.17-0.239-1.507-0.722
		c-0.105-0.154-0.257-0.543-0.458-1.171c-0.217-0.674-0.631-1.013-1.242-1.013c-0.441,0-0.813,0.194-1.114,0.579
		c-0.301,0.385-0.453,0.862-0.453,1.423c0,0.963,0.346,1.822,1.038,2.568c0.562,0.602,1.268,0.902,2.121,0.902
		c0.403,0,0.739-0.027,1.013-0.103c0.272-0.069,0.631-0.205,1.073-0.415c0.111-0.057,0.236-0.078,0.374-0.078
		c0.272,0,0.514,0.13,0.722,0.387c0.209,0.256,0.313,0.558,0.313,0.909c0,0.359-0.147,0.739-0.446,1.131
		c-0.296,0.395-0.687,0.75-1.169,1.045c-1.045,0.644-2.279,0.97-3.702,0.97c-1.655,0-3.066-0.488-4.23-1.448
		c-1.496-1.222-2.243-2.777-2.243-4.667c0-1.816,0.695-3.318,2.085-4.509C20.645,6.358,22.257,5.787,24.155,5.787z"/>
	<g>
		<path fill="#0033CC" d="M36.934,1.93L36.776,6.98c-0.017,0.604,0.17,0.904,0.553,0.904c0.194,0,0.383-0.132,0.568-0.397
			c0.781-1.133,1.821-1.701,3.124-1.701c1.276,0,2.293,0.391,3.048,1.17c0.336,0.346,0.577,0.754,0.717,1.23
			c0.14,0.475,0.217,1.154,0.236,2.038l0.107,4.353c0.008,0.378,0.058,0.657,0.15,0.829c0.092,0.18,0.308,0.396,0.645,0.659
			c0.233,0.184,0.351,0.405,0.351,0.664c0,0.868-1.311,1.295-3.931,1.295c-2.331,0-3.496-0.401-3.496-1.219
			c0-0.13,0.021-0.236,0.061-0.312c0.041-0.073,0.182-0.265,0.423-0.577c0.336-0.442,0.506-1.55,0.506-3.312
			c0-1.069-0.101-1.846-0.3-2.338c-0.267-0.667-0.741-1-1.423-1c-0.491,0-0.852,0.176-1.085,0.53
			c-0.168,0.258-0.252,0.739-0.252,1.446v2.328c0.057,1.026,0.103,1.607,0.142,1.746c0.042,0.135,0.228,0.396,0.557,0.763
			c0.151,0.17,0.229,0.365,0.229,0.597c0,0.907-1.183,1.358-3.545,1.358c-2.764,0-4.148-0.472-4.148-1.41
			c0-0.22,0.045-0.387,0.133-0.5c0.088-0.121,0.305-0.296,0.651-0.538c0.305-0.218,0.515-0.805,0.632-1.756
			c0.117-0.954,0.175-2.529,0.175-4.732c0-1.729-0.048-2.927-0.145-3.595c-0.031-0.248-0.09-0.433-0.174-0.548
			c-0.083-0.112-0.244-0.232-0.477-0.353c-0.499-0.257-0.748-0.555-0.748-0.892c0-0.403,0.189-0.728,0.566-0.978
			c0.378-0.249,1.103-0.518,2.171-0.808c1.446-0.401,2.599-0.603,3.459-0.603C36.724,1.326,36.951,1.526,36.934,1.93z"/>
		<path fill="#FFFFFF" d="M36.934,1.93c0,0-0.03,1.264-0.083,3.475c-0.006,0.551-0.044,1.168-0.028,1.828
			c0.003,0.317,0.223,0.686,0.588,0.592c0.32-0.085,0.499-0.472,0.742-0.758c0.502-0.592,1.216-1.115,2.092-1.271
			c0.426-0.106,0.896-0.081,1.343-0.047c0.227,0.001,0.455,0.033,0.687,0.105c0.228,0.069,0.48,0.089,0.69,0.218
			c0.213,0.117,0.455,0.195,0.651,0.349c0.196,0.164,0.391,0.295,0.593,0.494c0.147,0.2,0.322,0.374,0.45,0.601
			c0.103,0.249,0.251,0.482,0.313,0.759c0.052,0.25,0.104,0.502,0.156,0.757c0.022,0.266,0.044,0.534,0.066,0.804
			c0.051,0.547,0.054,1.068,0.083,1.615c0.052,1.076,0.082,2.222,0.156,3.318c0.015,0.14,0.024,0.303,0.069,0.371
			c0.011,0.031,0.044,0.121,0.029,0.108l0.135,0.168c0.201,0.244,0.342,0.281,0.604,0.543c0.134,0.13,0.264,0.348,0.304,0.539
			c0.006,0.121,0.051,0.161,0.013,0.352l-0.04,0.217c-0.053,0.155-0.22,0.446-0.358,0.536c-0.145,0.109-0.295,0.238-0.45,0.29
			c-0.618,0.296-1.238,0.375-1.854,0.448c-0.621,0.066-1.23,0.091-1.861,0.092c-0.595,0.012-1.267-0.045-1.909-0.157l-0.497-0.131
			c-0.168-0.061-0.34-0.141-0.508-0.222c-0.339-0.216-0.705-0.571-0.702-1.166c0.017-0.102-0.012-0.096,0.048-0.307l0.043-0.124
			c-0.011,0.014,0.043-0.089,0.043-0.083l0.017-0.023l0.068-0.095l0.273-0.38c0.051-0.047,0.13-0.256,0.193-0.376
			c0.09-0.15,0.064-0.259,0.1-0.385c0.056-0.22,0.087-0.522,0.11-0.827c0.036-0.295,0.042-0.602,0.045-0.911
			c0.003-0.32,0.021-0.595,0.003-0.917c-0.003-0.324-0.026-0.624-0.059-0.907c-0.064-0.575-0.21-1.144-0.539-1.428
			c-0.102-0.112-0.314-0.201-0.537-0.215l-0.083-0.015c0.077-0.014-0.046,0.002-0.06,0.002l-0.236,0.021
			c-0.083,0.045-0.137,0.032-0.213,0.099c-0.07,0.01-0.158,0.172-0.167,0.137l-0.102,0.213l-0.027,0.141
			c-0.049,0.21-0.071,0.534-0.077,0.819l-0.015,1.881l-0.003,0.469c-0.002-0.023,0.006,0.095-0.006-0.045l0.002,0.029l0.004,0.058
			l0.009,0.117l0.018,0.234l0.069,0.933l0.018,0.232l0.008,0.116c-0.016-0.047,0.04,0.146-0.036-0.098l0.015,0.025l0.029,0.051
			c0.075,0.146,0.155,0.267,0.239,0.347l0.12,0.143l0.059,0.073l0.015,0.019c-0.005-0.009,0.1,0.135,0.063,0.086l0.03,0.05
			l0.121,0.197c0.042,0.096,0.079,0.245,0.102,0.371l0.016,0.1l0.006,0.049c-0.002,0.049,0.012-0.042-0.003,0.123L38.11,16.87
			c-0.02,0.082-0.015,0.138-0.054,0.241c-0.102,0.24-0.258,0.488-0.415,0.585c-0.156,0.149-0.321,0.232-0.486,0.306
			c-0.166,0.093-0.329,0.13-0.492,0.176c-1.298,0.324-2.532,0.231-3.722,0.167c-0.614-0.061-1.213-0.117-1.812-0.313
			c-0.149-0.033-0.298-0.102-0.445-0.171c-0.148-0.061-0.293-0.135-0.429-0.255c-0.292-0.173-0.501-0.568-0.523-0.94
			c0.027-0.26-0.015-0.254,0.099-0.524c0.103-0.254,0.243-0.306,0.33-0.408l0.372-0.275l0.094-0.068
			c-0.045,0.047,0.029-0.03,0.038-0.04l0.143-0.152c0.205-0.313,0.324-0.947,0.399-1.416c0.061-1.084,0.119-2.139,0.176-3.159
			c0.028-0.51,0.056-1.011,0.083-1.503c0.001-0.49,0.002-0.97,0.004-1.44c0.007-0.475,0.002-0.938-0.035-1.385
			c-0.036-0.438-0.011-0.923-0.194-1.267c-0.245-0.334-0.689-0.408-0.986-0.747c-0.154-0.158-0.243-0.359-0.25-0.589
			c0.01-0.194,0.062-0.398,0.171-0.578c0.112-0.171,0.26-0.3,0.416-0.413c0.171-0.08,0.338-0.158,0.503-0.235
			c0.318-0.169,0.662-0.251,0.981-0.352c0.638-0.214,1.24-0.335,1.778-0.456c0.538-0.128,1.021-0.236,1.454-0.252
			c0.429-0.029,0.792-0.096,1.088-0.078c0.306,0.022,0.491,0.219,0.513,0.374C36.948,1.849,36.926,1.931,36.934,1.93z M36.934,1.93
			c-0.007,0.001,0.013-0.082-0.026-0.229c-0.024-0.153-0.21-0.344-0.511-0.361c-0.295-0.013-0.658,0.058-1.084,0.094
			c-0.43,0.021-0.91,0.136-1.446,0.272c-0.539,0.128-1.137,0.258-1.762,0.478c-0.314,0.104-0.65,0.187-0.968,0.362
			c-0.16,0.077-0.323,0.156-0.489,0.236c-0.146,0.109-0.281,0.231-0.38,0.387c-0.091,0.153-0.139,0.33-0.147,0.536
			c0.012,0.169,0.085,0.355,0.224,0.487c0.243,0.293,0.737,0.385,1.016,0.756c0.229,0.431,0.181,0.877,0.245,1.332
			c0.054,0.456,0.076,0.92,0.087,1.394c0.016,0.478,0.032,0.965,0.049,1.461c-0.009,0.494-0.019,0.996-0.028,1.507
			c-0.019,1.022-0.039,2.08-0.059,3.166c-0.098,0.591-0.084,1.096-0.478,1.739c-0.417,0.521-0.95,0.605-0.873,1.098
			c0.023,0.382,0.491,0.64,1.008,0.778c0.516,0.15,1.099,0.188,1.663,0.223c1.165,0.027,2.385,0.047,3.451-0.267
			c0.129-0.042,0.264-0.077,0.365-0.141c0.115-0.051,0.223-0.107,0.286-0.18c0.11-0.072,0.082-0.114,0.142-0.135
			c0.023-0.034,0.028-0.14,0.043-0.207l0.019-0.113c-0.014,0.146-0.007,0.035-0.011,0.065l-0.004-0.008l-0.005-0.015
			c-0.009-0.022,0.018-0.032,0.008-0.079l-0.124-0.195l-0.031-0.049c-0.048-0.065,0.048,0.062,0.029,0.038l-0.022-0.026
			l-0.088-0.105l-0.175-0.215c-0.128-0.149-0.216-0.287-0.287-0.417l-0.029-0.051l-0.015-0.025c-0.088-0.26-0.026-0.088-0.046-0.154
			l-0.01-0.115l-0.021-0.232l-0.083-0.931l-0.045-0.542l-0.003-0.469l-0.012-1.888c0.007-0.343,0.008-0.652,0.095-1.059
			c0.026-0.106,0.057-0.219,0.089-0.317l0.099-0.215c0.191-0.274,0.283-0.386,0.498-0.524c0.169-0.141,0.44-0.21,0.653-0.264
			l0.236-0.024c0.065-0.002,0.021-0.012,0.176-0.009l0.152,0.017c0.397,0.031,0.83,0.157,1.165,0.5
			c0.6,0.604,0.716,1.369,0.792,2.026c0.034,0.345,0.052,0.674,0.05,0.982c0.013,0.309-0.009,0.664-0.017,0.973
			c-0.008,0.321-0.019,0.643-0.063,0.971c-0.033,0.322-0.058,0.646-0.168,1.031c-0.093,0.416-0.197,0.618-0.406,0.962l-0.28,0.376
			l-0.069,0.094l-0.018,0.023c-0.014,0.02,0.038-0.063,0.02-0.031c0.004-0.003,0.006-0.008,0.006-0.013
			c-0.006-0.067-0.016,0.101-0.022,0.152c0.015,0.053,0.08,0.212,0.263,0.326c0.111,0.049,0.22,0.104,0.34,0.151l0.397,0.11
			c0.571,0.108,1.126,0.157,1.75,0.176c0.588,0.021,1.192,0.019,1.771-0.022c0.575-0.042,1.164-0.112,1.626-0.318
			c0.133-0.037,0.203-0.115,0.301-0.173c0.062-0.03,0.062-0.06,0.082-0.078c0.015-0.032,0.059-0.008,0.076-0.083l0.047-0.215
			c0.012,0.048-0.008-0.06-0.004-0.083c-0.027-0.094-0.041-0.138-0.107-0.22c-0.14-0.158-0.508-0.431-0.655-0.648l-0.128-0.173
			c-0.077-0.141-0.074-0.194-0.111-0.298c-0.068-0.199-0.059-0.325-0.072-0.47c-0.038-1.182-0.022-2.268-0.036-3.364
			c-0.01-0.538,0.006-1.09-0.024-1.596c-0.01-0.256-0.021-0.511-0.031-0.764c-0.043-0.256-0.086-0.51-0.128-0.762
			c-0.04-0.223-0.164-0.434-0.237-0.653c-0.106-0.213-0.284-0.406-0.421-0.607c-0.146-0.147-0.349-0.306-0.518-0.458
			c-0.178-0.152-0.403-0.23-0.599-0.349c-0.825-0.357-1.776-0.49-2.603-0.337c-0.842,0.137-1.541,0.634-2.034,1.198
			c-0.251,0.276-0.41,0.669-0.812,0.783c-0.188,0.04-0.399-0.026-0.515-0.178c-0.114-0.15-0.152-0.33-0.165-0.5
			c-0.007-0.672,0.04-1.28,0.054-1.833C36.885,3.193,36.934,1.93,36.934,1.93z"/>
	</g>
	<path fill="#0033CC" stroke="#FFFFFF" d="M54.452,5.776c1.471,0,2.762,0.381,3.87,1.144c0.796,0.548,1.435,1.259,1.916,2.135
		c0.5,0.917,0.749,1.874,0.749,2.869c0,1.747-0.8,3.229-2.401,4.446c-1.525,1.167-3.274,1.75-5.243,1.75
		c-1.92,0-3.476-0.543-4.666-1.637c-1.156-1.062-1.734-2.443-1.734-4.15c0-1.895,0.705-3.447,2.12-4.653
		C50.542,6.41,52.336,5.776,54.452,5.776z M53.487,8.56c-0.355,0-0.639,0.131-0.853,0.393c-0.211,0.261-0.317,0.608-0.317,1.043
		c0,0.481,0.09,1.139,0.271,1.972c0.18,0.832,0.396,1.57,0.645,2.211c0.249,0.658,0.655,0.988,1.219,0.988
		c0.714,0,1.072-0.452,1.072-1.362c0-0.674-0.09-1.44-0.271-2.302c-0.182-0.86-0.4-1.559-0.657-2.098
		C54.331,8.856,53.961,8.576,53.487,8.56z"/>
	<path fill="#0033CC" stroke="#FFFFFF" d="M69.315,5.776c1.471,0,2.761,0.381,3.87,1.144c0.796,0.548,1.436,1.259,1.918,2.135
		c0.501,0.917,0.753,1.874,0.753,2.869c0,1.747-0.805,3.229-2.399,4.446c-1.528,1.167-3.274,1.75-5.239,1.75
		c-1.92,0-3.477-0.543-4.668-1.637c-1.153-1.062-1.734-2.443-1.734-4.15c0-1.895,0.708-3.447,2.123-4.653
		C65.406,6.41,67.204,5.776,69.315,5.776z M68.352,8.56c-0.353,0-0.637,0.131-0.849,0.393c-0.213,0.261-0.319,0.608-0.319,1.043
		c0,0.482,0.088,1.139,0.271,1.971c0.183,0.833,0.394,1.57,0.646,2.211c0.246,0.659,0.658,0.989,1.217,0.989
		c0.713,0,1.078-0.452,1.078-1.362c0-0.675-0.09-1.442-0.27-2.302c-0.184-0.861-0.399-1.56-0.657-2.098
		C69.195,8.856,68.826,8.576,68.352,8.56z"/>
	<path fill="#0033CC" stroke="#FFFFFF" d="M83.603,8.234v3.872c0,1.71,0.027,2.709,0.081,2.987c0.052,0.285,0.247,0.498,0.593,0.651
		c0.298,0.129,0.5,0.253,0.6,0.364c0.102,0.113,0.151,0.271,0.151,0.479c0,0.269-0.097,0.507-0.282,0.727
		c-0.19,0.217-0.44,0.367-0.756,0.455c-0.576,0.179-1.556,0.267-2.93,0.267c-1.55,0-2.642-0.116-3.271-0.347
		c-0.289-0.108-0.522-0.271-0.71-0.491c-0.184-0.222-0.277-0.452-0.277-0.695c0-0.191,0.049-0.342,0.15-0.447
		c0.099-0.103,0.319-0.233,0.656-0.373c0.312-0.139,0.507-0.512,0.58-1.124c0.129-1.049,0.192-2.53,0.192-4.465
		c0-1.961-0.06-3.224-0.172-3.786c-0.113-0.562-0.396-0.981-0.843-1.255c-0.344-0.193-0.568-0.375-0.695-0.549
		c-0.129-0.172-0.186-0.383-0.186-0.631c0-0.395,0.186-0.738,0.565-1.031c0.381-0.293,0.977-0.565,1.812-0.815
		c0.554-0.167,1.273-0.329,2.157-0.482c0.886-0.152,1.528-0.229,1.931-0.229c0.634,0,0.951,0.394,0.951,1.182
		c0,0.259-0.041,0.848-0.122,1.772C83.68,5.719,83.621,7.036,83.603,8.234z"/>
	<path fill="#0033CC" stroke="#FFFFFF" d="M98.009,9.561l-3.121,6.074c-0.484,0.942-0.892,1.596-1.229,1.964
		c-0.342,0.363-0.705,0.552-1.085,0.552c-0.379,0-0.684-0.137-0.918-0.408c-0.496-0.554-0.923-1.165-1.29-1.864L86.94,9.387
		c-0.185-0.354-0.361-0.611-0.536-0.765c-0.172-0.158-0.409-0.276-0.716-0.357c-0.609-0.177-0.917-0.506-0.917-0.99
		c0-0.49,0.376-0.846,1.129-1.072c0.761-0.226,1.952-0.338,3.585-0.338c1.366,0,2.368,0.1,3.019,0.294
		c0.652,0.2,0.974,0.501,0.974,0.913c0,0.289-0.152,0.567-0.459,0.832c-0.189,0.176-0.315,0.311-0.375,0.397
		c-0.054,0.089-0.079,0.202-0.079,0.338c0,0.274,0.18,0.728,0.531,1.363c0.351,0.618,0.684,0.927,0.985,0.927
		c0.201,0,0.366-0.076,0.496-0.227c0.132-0.153,0.362-0.546,0.7-1.183c0.248-0.465,0.378-0.818,0.378-1.06
		c0-0.192-0.131-0.422-0.39-0.687c-0.274-0.289-0.411-0.559-0.411-0.808c0-0.387,0.257-0.664,0.768-0.832
		c0.506-0.168,1.344-0.251,2.51-0.251c1.643,0,2.459,0.353,2.459,1.059c0,0.41-0.293,0.707-0.878,0.892
		c-0.457,0.144-0.771,0.301-0.936,0.47C98.609,8.463,98.356,8.885,98.009,9.561z"/>
	<path fill="#0033CC" stroke="#FFFFFF" d="M107.594,6.62v7.005c0,0.552,0.05,0.961,0.151,1.219c0.098,0.257,0.297,0.493,0.604,0.71
		c0.248,0.182,0.414,0.324,0.499,0.45c0.08,0.126,0.126,0.283,0.126,0.475c0,1.037-1.313,1.557-3.941,1.557
		c-1.415,0-2.54-0.111-3.361-0.343c-0.288-0.08-0.507-0.222-0.682-0.422c-0.177-0.198-0.262-0.429-0.262-0.688
		c0-0.217,0.047-0.392,0.131-0.499c0.086-0.13,0.313-0.316,0.681-0.581c0.242-0.186,0.421-0.492,0.529-0.908
		c0.102-0.42,0.153-1.042,0.153-1.87c0-0.266-0.021-0.761-0.052-1.489c-0.036-0.728-0.064-1.15-0.079-1.273
		c-0.051-0.329-0.273-0.582-0.677-0.76c-0.499-0.217-0.749-0.539-0.749-0.964c0-0.507,0.326-0.884,0.975-1.133
		c0.902-0.344,1.867-0.64,2.893-0.88c1.027-0.241,1.824-0.364,2.391-0.364C107.375,5.871,107.594,6.121,107.594,6.62z
		 M105.209,1.338c0.7,0,1.252,0.131,1.663,0.391c0.409,0.261,0.613,0.613,0.613,1.054c0,0.619-0.31,1.109-0.927,1.473
		c-0.979,0.571-2.168,0.855-3.555,0.855c-0.588,0-1.053-0.112-1.4-0.338c-0.46-0.289-0.697-0.691-0.697-1.205
		c0-0.692,0.498-1.234,1.481-1.628C103.394,1.541,104.332,1.338,105.209,1.338z"/>
	<path fill="#0033CC" stroke="#FFFFFF" d="M114.517,5.787c0.399,0,1.058,0.088,1.964,0.265c0.186,0.033,0.342,0.049,0.457,0.049
		c0.135,0,0.401-0.072,0.8-0.217c0.184-0.072,0.342-0.107,0.468-0.107c0.369,0,0.744,0.237,1.126,0.71
		c0.301,0.378,0.552,0.793,0.747,1.243c0.194,0.45,0.288,0.84,0.288,1.169c0,0.323-0.11,0.589-0.341,0.804
		c-0.223,0.211-0.502,0.316-0.843,0.316c-0.283,0-0.533-0.066-0.758-0.205c-0.222-0.136-0.571-0.438-1.064-0.904
		c-0.516-0.499-0.941-0.747-1.281-0.747c-0.228,0-0.421,0.082-0.586,0.246c-0.163,0.165-0.247,0.361-0.247,0.584
		c0,0.395,0.382,0.762,1.133,1.109c1.356,0.61,2.396,1.276,3.122,2c0.608,0.61,0.92,1.359,0.92,2.242
		c0,1.119-0.488,2.048-1.469,2.798c-0.846,0.65-1.878,0.972-3.098,0.972c-0.312,0-0.882-0.055-1.713-0.158
		c-0.776-0.085-1.217-0.132-1.312-0.132c-0.106,0-0.228,0.017-0.357,0.04c-0.235,0.025-0.4,0.049-0.508,0.049
		c-0.381,0-0.674-0.099-0.889-0.29c-0.335-0.299-0.641-0.766-0.919-1.405c-0.286-0.638-0.425-1.186-0.425-1.646
		c0-0.741,0.29-1.107,0.869-1.107c0.225,0,0.433,0.072,0.615,0.222c0.187,0.148,0.586,0.547,1.188,1.186
		c0.33,0.348,0.604,0.602,0.82,0.727c0.216,0.132,0.448,0.195,0.697,0.195c0.268,0,0.479-0.069,0.642-0.211
		c0.155-0.135,0.238-0.326,0.238-0.557c0-0.359-0.308-0.689-0.928-0.987c-1.295-0.634-2.229-1.288-2.804-1.962
		c-0.574-0.676-0.858-1.455-0.858-2.339c0-0.956,0.287-1.779,0.872-2.471C111.927,6.281,113.067,5.787,114.517,5.787z"/>
	<path fill="#0033CC" stroke="#FFFFFF" d="M132.599,12.393h-5.662c-0.247,0-0.378,0.108-0.378,0.327c0,0.521,0.29,1.014,0.853,1.474
		c0.564,0.465,1.179,0.694,1.826,0.694c0.385,0,0.816-0.073,1.282-0.225c0.473-0.147,0.864-0.335,1.168-0.553
		c0.272-0.188,0.494-0.29,0.657-0.29c0.207,0,0.411,0.132,0.61,0.389c0.199,0.259,0.296,0.522,0.296,0.798
		c0,0.576-0.358,1.13-1.081,1.675c-1.278,0.957-2.758,1.434-4.428,1.434c-1.685,0-3.098-0.491-4.24-1.467
		c-0.554-0.486-1.015-1.066-1.376-1.753c-0.475-0.91-0.71-1.864-0.71-2.868c0-1.349,0.404-2.564,1.232-3.641
		c0.707-0.934,1.604-1.628,2.698-2.086c0.82-0.345,1.709-0.519,2.663-0.519c1.526,0,2.824,0.434,3.896,1.303
		c0.537,0.433,0.971,0.949,1.3,1.543c0.38,0.675,0.565,1.334,0.565,1.976c0,0.523-0.105,0.951-0.33,1.286
		C133.226,12.228,132.944,12.393,132.599,12.393z M127.246,10.14h1.218c0.515,0,0.773-0.238,0.773-0.712
		c0-0.434-0.127-0.788-0.376-1.062c-0.25-0.273-0.575-0.41-0.975-0.41c-0.447,0-0.806,0.176-1.062,0.53
		c-0.237,0.328-0.363,0.663-0.363,1c0,0.241,0.057,0.411,0.183,0.507C126.752,10.09,126.957,10.14,127.246,10.14z"/>
	<path fill="#0033CC" stroke="#FFFFFF" d="M140.184,5.859c0.426,0,0.683,0.06,0.769,0.18c0.094,0.122,0.182,0.506,0.248,1.159
		c0.04,0.353,0.166,0.529,0.377,0.529c0.158,0,0.313-0.116,0.457-0.35c0.64-1.005,1.481-1.507,2.516-1.507
		c0.728,0,1.335,0.237,1.799,0.712c0.226,0.233,0.405,0.532,0.552,0.898c0.146,0.366,0.22,0.716,0.22,1.054
		c0,0.377-0.087,0.764-0.267,1.163c-0.178,0.397-0.4,0.726-0.685,0.982c-0.518,0.49-1.148,0.736-1.896,0.736
		c-0.411,0-0.755-0.072-1.026-0.218c-0.282-0.144-0.646-0.437-1.091-0.88c-0.171-0.17-0.326-0.254-0.471-0.254
		c-0.228,0-0.373,0.127-0.443,0.38s-0.1,0.786-0.1,1.598c0,1.213,0.039,2.042,0.13,2.484c0.054,0.238,0.133,0.405,0.237,0.498
		c0.101,0.094,0.315,0.189,0.643,0.289c0.724,0.22,1.084,0.597,1.084,1.132c0,0.332-0.118,0.617-0.348,0.865
		c-0.236,0.243-0.544,0.405-0.923,0.49c-0.768,0.158-1.909,0.238-3.399,0.238c-1.419,0-2.503-0.127-3.241-0.373
		c-0.657-0.229-0.984-0.612-0.984-1.174c0-0.417,0.238-0.792,0.719-1.122c0.234-0.15,0.396-0.289,0.481-0.414
		c0.088-0.131,0.15-0.291,0.184-0.513c0.13-0.729,0.191-2.085,0.191-4.063c0-0.361-0.038-0.621-0.122-0.777
		c-0.079-0.157-0.238-0.283-0.48-0.379c-0.572-0.226-0.857-0.552-0.857-0.977c0-0.386,0.188-0.719,0.59-0.995
		c0.396-0.277,1.058-0.553,1.979-0.827C138.262,6.056,139.313,5.868,140.184,5.859z"/>
	<rect x="88.729" y="20.629" fill="#FFFFFF" width="54.661" height="0.883"/>
</g>
</svg>
